<svg width="174" height="92" viewBox="0 0 174 92" fill="none" xmlns="http://www.w3.org/2000/svg">
<path d="M144.705 36.5557V23.6421H123.091L110.123 23.6421H88.509V36.5557H110.123V45.2031H88.509V50.6222V58.0783V66.7257V79.6393H101.477H131.775H144.743V66.7257V58.0783V50.6222V45.1647H123.13V36.5557H144.705ZM131.775 58.0783V66.7257H101.477V58.0783H110.161V63.1899H123.091V58.0783H131.775Z" fill="black"/>
<path d="M62.9585 23.642L49.9903 23.642V45.1646H28.3766L28.3766 58.0782H49.9903V79.6008H62.9585V58.0782H84.5722V45.1646H62.9585V23.642Z" fill="black"/>
<path d="M20.8457 17.7016L13.0884 25.4129L25.4892 37.7402L33.2465 30.0288L20.8457 17.7016Z" fill="black"/>
<path d="M30.9204 7.66669L23.1697 15.3858L35.5616 27.7238L43.3123 20.0047L30.9204 7.66669Z" fill="black"/>
</svg>
